<svg id="fd00b697-5246-4bf5-8948-bef78a7d2f83" data-name="Layer 1" xmlns="http://www.w3.org/2000/svg" viewBox="0 0 81.99 97.76"><path d="M-217,248.83a14.44,14.44,0,0,1,2.09,2.19c3.5,4.19,6.91,8.52,10.31,12.79.88,1.11,5.2,6.22,5.34,7.07v63.55a2.3,2.3,0,0,1-2.2,2h-6v8.88c0,.38-1.43,1.46-2,1.25l-70.68-.15-1.11-1.19V260.46a2.45,2.45,0,0,1,2.11-1.52h6v-8.11a2.61,2.61,0,0,1,1.53-2Zm-2.68,4h-49.24v6.11H-226a3.83,3.83,0,0,1,1.63.66c1.28,1.11,2.77,3.58,4,5a2.52,2.52,0,0,0,.75.67Zm14.13,16.42-10.12-12.6v12.6Zm-22.33-6.11h-49.44v79.4h65.85V283.37h-14.79c-.4,0-1.62-1.07-1.62-1.43Zm14.12,16.22-10.11-12.59v12.59Zm10.5-6.1h-9.93l5.73,7.34v51.63h4.2Z" transform="translate(281.2 -248.83)" style="fill:#11151b"/><path d="M-222.37,295a3.35,3.35,0,0,1-.93.51l-42.25,0a2,2,0,0,1,.38-3.84h41.63A2.06,2.06,0,0,1-222.37,295Z" transform="translate(281.2 -248.83)" style="fill:#11151b"/><path d="M-222.37,307.17a3.33,3.33,0,0,1-.93.5l-42.25,0a2,2,0,0,1,.38-3.84h41.63A2.06,2.06,0,0,1-222.37,307.17Z" transform="translate(281.2 -248.83)" style="fill:#11151b"/><path d="M-222.37,319.38a3.35,3.35,0,0,1-.93.51l-42.25-.05A2,2,0,0,1-265,316h41.43A2.06,2.06,0,0,1-222.37,319.38Z" transform="translate(281.2 -248.83)" style="fill:#11151b"/><path d="M-222.37,331.6a3.63,3.63,0,0,1-.93.51l-42.25-.05a2,2,0,0,1,.58-3.84h41.43A2.06,2.06,0,0,1-222.37,331.6Z" transform="translate(281.2 -248.83)" style="fill:#11151b"/></svg>