<svg id="f5e983f7-2b16-48af-8907-c318ee763002" data-name="Layer 1" xmlns="http://www.w3.org/2000/svg" viewBox="0 0 142.37 108.47"><path d="M-430.49,220.43a18.63,18.63,0,0,1,0-3.34c1.91-15.24,25.56-13.87,25,2.1C-406,234.59-428.64,235.2-430.49,220.43Zm15.47-4.64c-3.84-3.84-9.76,2.1-5.93,5.94S-411.18,219.63-415,215.79Z" transform="translate(430.57 -206.27)" style="fill:#11151b"/><path d="M-430.49,262.16a18.63,18.63,0,0,1,0-3.34c1.85-14.76,24.53-14.15,25,1.24C-404.93,276-428.58,277.4-430.49,262.16Zm15.47-4.63c-3.84-3.84-9.76,2.09-5.93,5.93S-411.18,261.37-415,257.53Z" transform="translate(430.57 -206.27)" style="fill:#11151b"/><path d="M-430.49,303.89a18.52,18.52,0,0,1,0-3.33c1.91-15.24,25.56-13.88,25,2.09C-406,318.05-428.64,318.66-430.49,303.89Zm15.47-4.63c-3.84-3.84-9.76,2.09-5.93,5.93S-411.18,303.1-415,299.26Z" transform="translate(430.57 -206.27)" style="fill:#11151b"/><path d="M-386.06,206.32l86.64,0c15.11,2,14.89,23.27-.25,25l-86.16,0C-400.65,229.31-400.85,208.5-386.06,206.32Zm88.39,9.47a5.39,5.39,0,0,0-3.09-1.21h-83.72a4.18,4.18,0,0,0-.27,8.35l85.38-.26A4.19,4.19,0,0,0-297.67,215.79Z" transform="translate(430.57 -206.27)" style="fill:#11151b"/><path d="M-386.06,248.05l86.64,0c15.11,2,14.89,23.26-.25,25l-86.16,0C-400.65,271.05-400.85,250.23-386.06,248.05Zm88.39,9.48a5.33,5.33,0,0,0-3.09-1.22h-83.72a4.18,4.18,0,0,0-.27,8.36l85.38-.26A4.19,4.19,0,0,0-297.67,257.53Z" transform="translate(430.57 -206.27)" style="fill:#11151b"/><path d="M-386.06,289.78l86.64,0c15.11,2,14.89,23.26-.25,25l-86.16,0C-400.65,312.78-400.85,292-386.06,289.78Zm88.39,9.48a5.33,5.33,0,0,0-3.09-1.22h-83.72a4.18,4.18,0,0,0-.27,8.36l85.38-.26A4.19,4.19,0,0,0-297.67,299.26Z" transform="translate(430.57 -206.27)" style="fill:#11151b"/></svg>