<svg id="Layer_1" data-name="Layer 1" xmlns="http://www.w3.org/2000/svg" viewBox="0 0 381.51 383.26"><defs><style>.cls-1{fill:#4366b0;}</style></defs><path class="cls-1" d="M431.57,168.27c6.1,2.4,8.38,7.27,8.95,13.43.4,4.33,1.58,4.77,5.1,2.27,1.21-.87,2.39-1.8,3.65-2.6a11.07,11.07,0,0,1,14.1,1.18c3.3,3,6.41,6.29,9.56,9.49,5.22,5.3,5.85,10.49,1.37,16.37-5.7,7.48-3,7.38,3.12,8.14,7.59.93,10.92,5.35,11,13.07q0,5.61,0,11.22c-.05,7.5-3.43,11.66-10.81,12.8-8.92,1.38-7.46,2.46-3.36,8,4.41,6,4,11.17-1.1,16.44q-4.29,4.44-8.73,8.73c-5.28,5.09-10.41,5.43-16.46,1.18-6.44-4.52-6.44-4.52-7.95,3.26-1.48,7.61-5.37,10.83-13.18,10.89-3.49,0-7,0-10.48,0-8.31,0-12.33-3.46-13.72-11.68-.21-1.22-.25-2.49-.55-3.69-.51-2.1-1.79-2.57-3.58-1.36s-3.22,2.37-4.9,3.44c-4.87,3.09-9.85,2.8-14.08-1.1-3.67-3.37-7.2-6.92-10.59-10.57-4.24-4.57-4.44-10-.46-15.31,4.51-6,5.55-6.86-3.27-8.24-7.29-1.14-10.62-5.19-10.65-12.5,0-3.87,0-7.73,0-11.6,0-7.75,3.35-11.74,11-13.11,1-.18,2-.19,3-.36,3.71-.66,4.14-1.77,1.95-4.92-1-1.43-2.1-2.81-3-4.3a10.81,10.81,0,0,1,1.28-13.46c3.3-3.57,6.77-7,10.28-10.36,4.62-4.46,9.9-4.84,15.28-1.23,1,.69,2,1.46,3,2.18,3.44,2.46,4.75,2,5.08-2.36.49-6.25,2.94-11,9-13.35Zm24.26,111.4c1.35-1.51,2.43-2.72,3.52-3.91,2-2.2,5-4.13,5.62-6.66.42-1.7-2.57-4.2-4-6.4-4.24-6.78-.12-17,7.71-18.92,2.63-.66,5.34-1,8.29-1.58v-6.86c0-7.33.05-7.91-7.23-8.47-7.76-.6-13.77-14-8.38-20a51.23,51.23,0,0,0,3.93-5.49L455.25,191c-5.2,3.7-9.91,8.23-17.69,5s-7.78-10.09-9.06-16.3H414.21c-1.1,6.6-1.36,13.07-9.07,16.34-7.93,3.37-12.59-1.8-17.4-4.8l-10.57,9.82a32.55,32.55,0,0,0,3.34,4.6c7,6.72.6,21.39-8.58,21.34a11.68,11.68,0,0,0-4,.6c-.84.31-2,1.29-2,2-.19,4.19-.09,8.39-.09,12.65,6.89,1.1,13.33,1.4,16.57,9.15s-1.58,12.42-5,17.54l10.21,10.19c1.4-1,3-2.1,4.62-3.24,8.46-6,18.91-1.94,20.95,8.2.29,1.47.22,3.06.77,4.4a3.63,3.63,0,0,0,2.38,2.08c4,.22,8,.1,12.26.1,1.2-6.52,1.23-13.16,9-16.39S450,275.45,455.83,279.67Z" transform="translate(-106.88 -168.27)"/><path class="cls-1" d="M177.07,168.27c1.87.61,3.76,1.16,5.61,1.83a31.93,31.93,0,0,1,12.16,52.11c-.84.88-1.75,1.69-2.87,2.76a50.42,50.42,0,0,1,19.55,16.24,46.34,46.34,0,0,1,9,26.83c0,5.23.12,10.47,0,15.71-.18,10.28-7.57,17.95-17.83,18.34-5.61.22-11.22.12-16.83,0-4.06-.07-6.48-2.3-6.51-5.7s2.32-5.59,6.46-5.68c5.11-.1,10.23.05,15.34-.06,5.7-.12,8.29-2.66,8.09-8.34-.27-7.56.1-15.34-1.55-22.62-3.82-16.79-20.38-28.65-37.06-27.68-18.52,1.09-33.23,14-35.53,31.9-.84,6.51-.67,13.18-.62,19.77,0,4.23,2.81,6.76,7.26,6.92,5.1.19,10.22,0,15.33.09,4.88,0,7.23,1.9,7.26,5.6s-2.52,5.79-7.49,5.82-10,.08-15,0c-11-.21-18.79-8-18.64-19,.1-8.08-.29-16.33,1.22-24.19,2.75-14.32,11.35-24.94,24-32.19l2.59-1.45c.1,0,.16-.19-.33.46-3.21-5.49-7.12-10.34-9.08-15.88-6.13-17.33,4.54-36.07,22.53-40.72.81-.21,1.59-.56,2.39-.85ZM192.35,200a20.46,20.46,0,1,0-20.13,20.73A20.57,20.57,0,0,0,192.35,200Z" transform="translate(-106.88 -168.27)"/><path class="cls-1" d="M391.47,527.46c-3.13,0-5.84,0-8.55,0-9.23-.13-15.56-6.36-15.63-15.5-.07-9.48-.2-19,.14-28.43a8,8,0,0,1,3.25-5.66c1.31-.85,4.39-.43,5.72.64s2.09,3.63,2.14,5.56c.22,8.6.09,17.2.11,25.81,0,5.41.69,6.14,5.94,6.14q25.44,0,50.89,0c5.2,0,5.89-.68,5.89-5.73,0-22,0-43.9.06-65.85,0-2.59-1.07-4.28-2.57-6.25-5.62-7.37-12.57-10.09-22-9.32-10.77.89-21.68.19-32.53.22-4.9,0-5.7.8-5.72,5.62,0,6.86,0,13.72,0,20.58,0,4.32-2.25,7-5.62,6.95s-5.69-2.74-5.71-6.95c-.05-7.48-.09-15,0-22.45.11-8.56,6.27-15,14.81-15.13,15.34-.18,30.68-.07,46,0a15.44,15.44,0,0,1,3.68.59c7.2,1.81,19.34,15.13,21.25,23.66,2.56,0,5.27-.05,8,0,10.08.21,16,6.15,16.05,16.18q.06,38.55,0,77.08c0,10.28-6.05,16.3-16.22,16.31h-53.5c-9.61,0-15.58-5.85-15.87-15.51C391.4,533.29,391.47,530.58,391.47,527.46Zm11.51,0c0,2.59,0,4.8,0,7,0,5.19.63,5.82,5.8,5.83q25.26,0,50.5,0c5.73,0,6.27-.52,6.27-6.15q0-37.41,0-74.81c0-1,.28-2.18-.16-2.94-.66-1.15-1.75-2.73-2.81-2.86a86.19,86.19,0,0,0-9.84-.13v4.93c0,17.71.06,35.41,0,53.12,0,10-6.1,15.94-16.15,16-3.87,0-7.73,0-11.6,0Z" transform="translate(-106.88 -168.27)"/><path class="cls-1" d="M117.88,540.35V514.82c0-8.48,0-17,0-25.44,0-4.45,2-6.78,5.67-6.73s5.55,2.46,5.55,6.9q0,23.2,0,46.4v4.18h35.23V524.61a19.29,19.29,0,0,1,.09-3.73,5.31,5.31,0,0,1,5.77-4.72c3.09.05,5.26,2.23,5.32,5.56.1,6,0,12,0,18.27h39V536.2q0-49.2,0-98.4c0-6.7-2-8.7-8.67-8.71q-34,0-68.09,0c-6.65,0-8.65,2.1-8.66,8.78,0,7.61,0,15.21,0,22.82,0,4.35-2.09,6.9-5.56,6.95s-5.65-2.46-5.66-6.81c0-8.35-.08-16.71,0-25.06.11-10.21,7.39-18,17.54-18q36.47-.29,73,0c10.55.1,17.44,8,17.46,19.28q.06,49.2,0,98.4v4.92c2.15,0,4-.14,5.79,0,3.19.29,4.94,2.22,5.2,5.35a5.51,5.51,0,0,1-5.17,5.77,21.08,21.08,0,0,1-2.25,0H114.21a14.17,14.17,0,0,1-2.61-.07c-3-.58-4.69-2.52-4.72-5.44a5.22,5.22,0,0,1,4.9-5.61A50.73,50.73,0,0,1,117.88,540.35Z" transform="translate(-106.88 -168.27)"/><path class="cls-1" d="M296.68,426.8a66.9,66.9,0,1,1,66.78-66.87A67.18,67.18,0,0,1,296.68,426.8Zm-55.52-67.27c-.25,30.44,24.27,55.58,54.46,55.84,31,.27,56.33-24.15,56.62-54.55.29-30.71-24.2-56.1-54.4-56.4C266.34,304.12,241.41,328.36,241.16,359.53Z" transform="translate(-106.88 -168.27)"/><path class="cls-1" d="M315.93,240.83H265.59c-1,0-2,.06-3,0-3.46-.28-5.6-2.55-5.53-5.81a5.2,5.2,0,0,1,5.47-5.39c5.86-.16,11.72-.08,17.59-.09H315.9l.92-1.38c-2.53-2.15-5.17-4.16-7.54-6.46-3.07-3-3.25-6-.86-8.54s5.82-2.36,8.86.64q8.39,8.28,16.67,16.67c3.27,3.32,3.29,6.07,0,9.39q-8.39,8.56-16.94,16.94c-2.8,2.73-6.32,2.8-8.62.39s-2.19-5.5.52-8.31c2.39-2.47,5-4.75,7.46-7.12Z" transform="translate(-106.88 -168.27)"/><path class="cls-1" d="M277.43,479h50.11c6,0,8.81,1.81,8.84,5.66s-2.81,5.65-8.8,5.66H276.46c2.81,2.86,5,5.1,7.19,7.35,3.18,3.26,3.58,6.67,1.09,9.16s-5.84,2.16-9.16-1.13q-8-7.91-15.88-15.88c-3.71-3.76-3.69-6.48,0-10.23q8-8.1,16.14-16.14c3.09-3.05,6.37-3.33,8.84-.87s2.21,5.75-.84,8.85c-2.26,2.28-4.64,4.44-7,6.65Z" transform="translate(-106.88 -168.27)"/><path class="cls-1" d="M428.1,379.81c2.36-2.55,4.62-5.2,7.1-7.63,2.64-2.59,6.06-2.64,8.32-.38s2.2,5.72-.36,8.33c-5.76,5.88-11.57,11.72-17.46,17.46-2.89,2.81-5.69,2.81-8.56,0q-8.83-8.61-17.47-17.45c-2.59-2.63-2.66-6.06-.42-8.33s5.74-2.2,8.34.35,4.77,5.06,7.15,7.61l1.07-.37v-3.79q0-24.32,0-48.64c0-4,1.83-6.38,5-6.69,3.68-.37,6.22,2.24,6.23,6.61q0,24.14,0,48.27v4Z" transform="translate(-106.88 -168.27)"/><path class="cls-1" d="M171.92,453.36c-7.6,0-15.19,0-22.79,0-4.47,0-7.22-2.33-7.14-5.86.07-3.36,2.67-5.52,7-5.54q22.78-.07,45.58,0c4.6,0,7.21,2.26,7.1,5.81s-2.71,5.58-7.37,5.59C186.87,453.38,179.39,453.36,171.92,453.36Z" transform="translate(-106.88 -168.27)"/><path class="cls-1" d="M171.43,478.06c-7.72,0-15.44,0-23.16,0-2.9,0-5.46-1.26-5.84-4.15-.25-1.89.76-4.22,1.89-5.89.64-.94,2.67-1.29,4.07-1.3q23.54-.12,47.08,0c3.87,0,6.18,2.29,6.24,5.51.06,3.39-2.41,5.79-6.36,5.83C187.38,478.12,179.41,478.06,171.43,478.06Z" transform="translate(-106.88 -168.27)"/><path class="cls-1" d="M171.92,502.76c-7.59,0-15.19,0-22.79,0-4.46,0-7.22-2.34-7.14-5.86.07-3.36,2.67-5.52,7-5.54q22.8-.08,45.59,0c4.6,0,7.21,2.25,7.1,5.81s-2.72,5.58-7.37,5.6C186.87,502.78,179.4,502.76,171.92,502.76Z" transform="translate(-106.88 -168.27)"/><path class="cls-1" d="M409.87,453.36c-4,0-8,.07-11.93,0s-6.42-2.49-6.36-5.82,2.35-5.48,6.2-5.54q12.29-.18,24.59,0c3.86.06,6.13,2.31,6.16,5.55s-2.4,5.7-6.37,5.79S414,453.36,409.87,453.36Z" transform="translate(-106.88 -168.27)"/><path class="cls-1" d="M410.17,478.06c-4,0-7.95.05-11.92,0s-6.55-2.23-6.68-5.52,2.26-5.78,6.27-5.84q12.3-.18,24.6,0c3.82.06,6.1,2.36,6.09,5.61S426.08,478,422.1,478,414.15,478.06,410.17,478.06Z" transform="translate(-106.88 -168.27)"/><path class="cls-1" d="M403.5,502.74c-2.11,0-4.23.13-6.33,0-3.38-.27-5.76-2.76-5.56-5.82.22-3.33,2.11-5.33,5.46-5.45,4.34-.15,8.7-.18,13,0a5.58,5.58,0,0,1,5.64,5.71c-.09,3-2.48,5.35-5.91,5.56-2.1.14-4.22,0-6.34,0Z" transform="translate(-106.88 -168.27)"/><path class="cls-1" d="M421.23,261.11a25.91,25.91,0,0,1-25.89-25.86,26,26,0,1,1,52.05-.05A25.78,25.78,0,0,1,421.23,261.11Zm-14.46-25.82a14.67,14.67,0,1,0,14.49-14.77A14.38,14.38,0,0,0,406.77,235.29Z" transform="translate(-106.88 -168.27)"/><path class="cls-1" d="M290.3,353c6-6.1,10.93-11.21,16-16.21,7.8-7.75,18.82-8,26-.78s6.78,18.13-.74,25.73Q318,375.39,304.3,388.93c-8.46,8.38-18.64,8.37-27,.05-5.22-5.17-10.44-10.34-15.59-15.59-7.59-7.74-7.8-18.48-.58-25.71,7.07-7.06,18.11-6.84,25.73.63A41.92,41.92,0,0,1,290.3,353Zm.38,31.34c1.7-.86,3.4-1.29,4.48-2.35,9.76-9.62,19.5-19.27,29.07-29.09a6.09,6.09,0,0,0-.84-9.49c-2.86-2.1-5.9-1.72-9,1.34-6.3,6.22-12.49,12.54-18.8,18.75-3.51,3.45-6.15,3.39-9.69,0-2.51-2.43-4.9-5-7.44-7.37-3-2.85-6.69-2.92-9.31-.31s-2.49,6.5.31,9.36c5.4,5.53,10.86,11,16.43,16.36C287.16,382.68,289,383.32,290.68,384.29Z" transform="translate(-106.88 -168.27)"/></svg>