<svg id="a5ffee8c-9ff9-4d73-9876-c7edc288142e" data-name="Layer 1" xmlns="http://www.w3.org/2000/svg" viewBox="0 0 68.67 68.75"><path d="M-332.09,180.74c5.15-.58,11.2.33,16.43,0a7.49,7.49,0,0,1,6.51,6.62c.45,5.11-.33,10.85,0,16a7.52,7.52,0,0,1-6.64,6.64c-5.18-.33-10.92.46-16,0a7.49,7.49,0,0,1-6.64-6.64c.38-5.2-.54-11.19,0-16.29A7.47,7.47,0,0,1-332.09,180.74Zm.61,4.88a2.51,2.51,0,0,0-2.1,2.33c-.52,4.59.39,10.12,0,14.81a2.52,2.52,0,0,0,2.51,2.37c4.67.42,9.94-.32,14.67,0a2.53,2.53,0,0,0,2.37-2.51c.42-4.67-.32-9.94,0-14.67a2.53,2.53,0,0,0-2.37-2.37C-321.06,185.06-326.72,186-331.48,185.62Z" transform="translate(377.68 -141.43)" style="fill:#11151b"/><path d="M-366.75,141.65c6.63-.67,13.5-.12,17,6.27,2.36,4.29,2.21,13.4-.51,17.56-3.69,5.62-10.06,6-16.23,5.44a12.43,12.43,0,0,1-11.07-11.07C-378.22,151.74-376.46,142.64-366.75,141.65Zm.61,4.89c-6.56.74-6.9,7.17-6.54,12.41.5,7,7,7.54,12.61,7.09,6.92-.54,7.38-7.1,6.95-12.6C-353.67,146.46-360.58,145.91-366.14,146.54Z" transform="translate(377.68 -141.43)" style="fill:#11151b"/><path d="M-366.75,180.74c6.63-.67,13.5-.12,17,6.27,2.36,4.3,2.21,13.41-.51,17.56-3.69,5.62-10.06,6-16.23,5.44a12.43,12.43,0,0,1-11.07-11.07C-378.22,190.83-376.46,181.73-366.75,180.74Zm.61,4.89c-6.56.74-6.9,7.17-6.54,12.41.5,7,7,7.54,12.61,7.09,6.92-.54,7.38-7.1,6.95-12.6C-353.67,185.55-360.58,185-366.14,185.63Z" transform="translate(377.68 -141.43)" style="fill:#11151b"/><path d="M-325.36,141.65A14.72,14.72,0,0,1-310.75,163a14.72,14.72,0,0,1-24.35,2.66C-342.57,156.73-336.87,142.73-325.36,141.65Zm.61,4.89c-13.59,1.35-10.25,22.43,3.3,19.18C-309.88,163-312.83,145.36-324.75,146.54Z" transform="translate(377.68 -141.43)" style="fill:#11151b"/></svg>