<?xml version="1.0" encoding="UTF-8"?>
<svg id="Layer_1" data-name="Layer 1" xmlns="http://www.w3.org/2000/svg" viewBox="0 0 344.37 344.35">
  <defs>
    <style>
      .cls-1 {
        fill: #f3f0f0;
      }
    </style>
  </defs>
  <path class="cls-1" d="M105.34.95c43.33,1.25,88.42-2.42,131.55-.25,67.29,3.38,103.02,38.6,106.63,105.96,2.43,45.46-1.2,93.6-.74,139.22-12.91,130.44-142.71,91.21-234.7,97.72C40.05,340.32,4.1,305.17.67,236.93c1.69-42.72-2.14-87.02,0-129.56C4.03,40.44,38.43,5.1,105.34.95ZM108.33,24.9c-56.77,3.24-81,28.89-83.71,85.46,7.67,76.27-33.47,208.93,85,209.24,76.26-7.66,209.72,33.67,209.95-84.96-7.63-76.6,33.74-210.3-85.67-209.99-41.42,1.58-84.32-2.11-125.57.25Z"/>
  <path class="cls-1" d="M177.18,221.75c26.79,1.69,58.01-2.98,84.3-.1,16.48,1.8,16.65,22.92.08,24.6-26.39-2.24-57.97,3.06-83.74-.07-15.68-1.91-15.62-22.22-.64-24.42Z"/>
  <path class="cls-1" d="M175.66,110.19l87.34-.11c13.66,2.32,14.85,19.85,1.51,23.84h-88.98c-12.68-3.84-12.8-20.06.13-23.73Z"/>
  <path class="cls-1" d="M129.26,86.25c11.54-.71,16.26,11.61,9.48,20.71-5.04,6.76-29.57,31.36-36.3,36.3-4.01,2.95-7.78,4.01-12.66,2.3-3.38-1.18-17.19-14.81-18.52-18.15-4.24-10.62,5.49-20.46,16.05-16.05,1.96.82,6.35,5.49,7.23,5.34l27.8-27.64c1.8-1.29,4.74-2.68,6.92-2.81Z"/>
  <path class="cls-1" d="M73.57,225.55c6.15-6.47,15.77-3.09,20.32,3.47,2.23,0,25.37-28.63,32.51-30.36,12.12-2.93,20.3,9.22,12.78,19.51-4.76,6.51-30.07,31.67-36.66,36.7-4.55,3.48-9.89,4.75-14.95,1.45-1.82-1.19-14.15-13.52-15.35-15.35-3.08-4.72-2.52-11.35,1.35-15.42Z"/>
</svg>